<svg width="1725" height="8013" viewBox="0 0 1725 8013" fill="none" xmlns="http://www.w3.org/2000/svg">
<ellipse cx="136" cy="7881.27" rx="72" ry="70.9333" fill="#FCB650"/>
<ellipse cx="135.05" cy="7790.73" rx="46.4211" ry="45.7333" fill="#FCB650"/>
<line x1="137.253" y1="7853.27" x2="137.253" y2="7997" stroke="black" stroke-width="2.50658"/>
<line y1="-1.25329" x2="51.9027" y2="-1.25329" transform="matrix(0.73011 -0.683329 0.694136 0.719844 137.891 7924.2)" stroke="black" stroke-width="2.50658"/>
<line y1="-1.25329" x2="39.8968" y2="-1.25329" transform="matrix(0.712364 0.70181 -0.712364 0.70181 107.578 7860.73)" stroke="black" stroke-width="2.50658"/>
<circle cx="426.652" cy="7893.4" r="63.5" fill="#FCB650"/>
<circle cx="425.816" cy="7812.35" r="40.9408" fill="#FCB650"/>
<line x1="427.906" y1="7868.33" x2="427.906" y2="7997" stroke="black" stroke-width="2.50658"/>
<line x1="427.461" y1="7930.92" x2="460.882" y2="7899.17" stroke="black" stroke-width="2.50658"/>
<line x1="402.472" y1="7874.13" x2="427.538" y2="7899.19" stroke="black" stroke-width="2.50658"/>
<circle cx="723.953" cy="7868.69" r="78.6444" fill="#FCB650"/>
<circle cx="722.92" cy="7768.31" r="50.7049" fill="#FCB650"/>
<line x1="725.505" y1="7837.64" x2="725.505" y2="7997" stroke="black" stroke-width="3.10438"/>
<line x1="724.954" y1="7915.16" x2="766.346" y2="7875.84" stroke="black" stroke-width="3.10438"/>
<line x1="694.008" y1="7844.82" x2="725.052" y2="7875.87" stroke="black" stroke-width="3.10438"/>
<circle cx="1020.89" cy="7893.98" r="63.1444" fill="#FCB650"/>
<circle cx="1020.06" cy="7813.38" r="40.7115" fill="#FCB650"/>
<line x1="1022.14" y1="7869.05" x2="1022.14" y2="7997" stroke="black" stroke-width="2.49254"/>
<line x1="1021.7" y1="7931.29" x2="1054.93" y2="7899.72" stroke="black" stroke-width="2.49254"/>
<line x1="996.85" y1="7874.82" x2="1021.78" y2="7899.74" stroke="black" stroke-width="2.49254"/>
<circle cx="1287.42" cy="7918.32" r="48.2259" fill="#FCB650"/>
<circle cx="1286.79" cy="7856.76" r="31.093" fill="#FCB650"/>
<line x1="1288.37" y1="7899.28" x2="1288.37" y2="7997" stroke="black" stroke-width="1.90365"/>
<line x1="1288.04" y1="7946.82" x2="1313.42" y2="7922.7" stroke="black" stroke-width="1.90365"/>
<line x1="1269.06" y1="7903.68" x2="1288.09" y2="7922.72" stroke="black" stroke-width="1.90365"/>
<circle cx="1575.9" cy="7858.15" r="85.1" fill="#FCB650"/>
<circle cx="1574.78" cy="7749.54" r="54.8671" fill="#FCB650"/>
<line x1="1577.58" y1="7824.56" x2="1577.58" y2="7997" stroke="black" stroke-width="3.35921"/>
<line x1="1576.98" y1="7908.44" x2="1621.77" y2="7865.89" stroke="black" stroke-width="3.35921"/>
<line x1="1543.5" y1="7832.33" x2="1577.09" y2="7865.92" stroke="black" stroke-width="3.35921"/>
<ellipse opacity="0.35" cx="-200.148" cy="488.964" rx="573.513" ry="516.806" transform="rotate(-0.820265 -200.148 488.964)" fill="#B3F5E5"/>
<ellipse opacity="0.35" cx="1894" cy="2292" rx="2895" ry="1442" fill="#A6E4FF"/>
<circle cx="1836.5" cy="5116.5" r="872.5" fill="#E4FBF6"/>
<ellipse cx="931.268" cy="2513.14" rx="1174.31" ry="601.809" transform="rotate(-6.20279 931.268 2513.14)" fill="white"/>
<mask id="path-35-inside-1_571_2111" fill="white">
<path fill-rule="evenodd" clip-rule="evenodd" d="M1595.88 1246C1541.81 1245.93 1498 1202.08 1498 1148C1498 1093.88 1541.88 1050 1596 1050C1642.71 1050 1681.79 1082.68 1691.62 1126.42C1702.31 1118.91 1715.34 1114.49 1729.4 1114.49C1765.72 1114.49 1795.16 1143.93 1795.16 1180.25C1795.16 1216.05 1766.54 1245.17 1730.93 1245.98V1246H1596.08C1596.05 1246 1596.03 1246 1596 1246C1595.97 1246 1595.95 1246 1595.92 1246"/>
</mask>
<path fill-rule="evenodd" clip-rule="evenodd" d="M1595.88 1246C1541.81 1245.93 1498 1202.08 1498 1148C1498 1093.88 1541.88 1050 1596 1050C1642.71 1050 1681.79 1082.68 1691.62 1126.42C1702.31 1118.91 1715.34 1114.49 1729.4 1114.49C1765.72 1114.49 1795.16 1143.93 1795.16 1180.25C1795.16 1216.05 1766.54 1245.17 1730.93 1245.98V1246H1596.08C1596.05 1246 1596.03 1246 1596 1246C1595.97 1246 1595.95 1246 1595.92 1246" fill="white"/>
<path d="M1595.92 1243.47H1595.88V1248.53H1595.92V1243.47ZM1691.62 1126.42L1686.68 1127.53L1688.34 1134.91L1694.53 1130.56L1691.62 1126.42ZM1730.93 1245.98L1730.81 1240.93L1725.87 1241.04V1245.98H1730.93ZM1730.93 1246V1251.06H1735.98V1246H1730.93ZM1595.88 1240.94C1544.61 1240.88 1503.06 1199.29 1503.06 1148H1492.94C1492.94 1204.87 1539.01 1250.99 1595.87 1251.06L1595.88 1240.94ZM1503.06 1148C1503.06 1096.67 1544.67 1055.06 1596 1055.06V1044.94C1539.08 1044.94 1492.94 1091.08 1492.94 1148H1503.06ZM1596 1055.06C1640.29 1055.06 1677.36 1086.05 1686.68 1127.53L1696.55 1125.32C1686.22 1079.31 1645.13 1044.94 1596 1044.94V1055.06ZM1729.4 1109.43C1714.26 1109.43 1700.22 1114.19 1688.71 1122.29L1694.53 1130.56C1704.39 1123.62 1716.42 1119.55 1729.4 1119.55V1109.43ZM1800.22 1180.25C1800.22 1141.14 1768.51 1109.43 1729.4 1109.43V1119.55C1762.93 1119.55 1790.1 1146.72 1790.1 1180.25H1800.22ZM1731.04 1251.04C1769.39 1250.17 1800.22 1218.81 1800.22 1180.25H1790.1C1790.1 1213.3 1763.68 1240.18 1730.81 1240.93L1731.04 1251.04ZM1735.98 1246V1245.98H1725.87V1246H1735.98ZM1596.08 1251.06H1730.93V1240.94H1596.08V1251.06ZM1596.08 1240.94C1596.06 1240.94 1596.05 1240.94 1596.04 1240.94C1596.02 1240.94 1596.01 1240.94 1596 1240.94V1251.06C1596.01 1251.06 1596.03 1251.06 1596.04 1251.06C1596.06 1251.06 1596.07 1251.06 1596.08 1251.06V1240.94ZM1596 1240.94C1595.99 1240.94 1595.98 1240.94 1595.96 1240.94C1595.95 1240.94 1595.94 1240.94 1595.92 1240.94V1251.06C1595.93 1251.06 1595.94 1251.06 1595.96 1251.06C1595.97 1251.06 1595.99 1251.06 1596 1251.06V1240.94Z" fill="black" mask="url(#path-35-inside-1_571_2111)"/>
<mask id="path-37-inside-2_571_2111" fill="white">
<path fill-rule="evenodd" clip-rule="evenodd" d="M21.875 326C-32.1914 325.932 -76 282.082 -76 228C-76 173.876 -32.1239 130 22 130C68.7111 130 107.789 162.681 117.617 206.425C128.308 198.905 141.34 194.49 155.403 194.49C191.719 194.49 221.158 223.93 221.158 260.245C221.158 296.052 192.538 325.174 156.925 325.983V326H22.0782C22.0521 326 22.0261 326 22 326C21.9739 326 21.9479 326 21.9218 326"/>
</mask>
<path fill-rule="evenodd" clip-rule="evenodd" d="M21.875 326C-32.1914 325.932 -76 282.082 -76 228C-76 173.876 -32.1239 130 22 130C68.7111 130 107.789 162.681 117.617 206.425C128.308 198.905 141.34 194.49 155.403 194.49C191.719 194.49 221.158 223.93 221.158 260.245C221.158 296.052 192.538 325.174 156.925 325.983V326H22.0782C22.0521 326 22.0261 326 22 326C21.9739 326 21.9479 326 21.9218 326" fill="white"/>
<path d="M21.9218 323.471H21.875V328.529H21.9218V323.471ZM117.617 206.425L112.682 207.533L114.34 214.913L120.527 210.562L117.617 206.425ZM156.925 325.983L156.81 320.926L151.867 321.038V325.983H156.925ZM156.925 326V331.058H161.983V326H156.925ZM21.8813 320.942C-29.3945 320.878 -70.9419 279.291 -70.9419 228H-81.0581C-81.0581 284.874 -34.9884 330.987 21.8687 331.058L21.8813 320.942ZM-70.9419 228C-70.9419 176.67 -29.3304 135.058 22 135.058V124.942C-34.9174 124.942 -81.0581 171.083 -81.0581 228H-70.9419ZM22 135.058C66.2938 135.058 103.362 166.048 112.682 207.533L122.552 205.316C112.217 159.313 71.1283 124.942 22 124.942V135.058ZM155.403 189.432C140.265 189.432 126.222 194.188 114.707 202.287L120.527 210.562C130.394 203.622 142.415 199.548 155.403 199.548V189.432ZM226.216 260.245C226.216 221.136 194.512 189.432 155.403 189.432V199.548C188.925 199.548 216.1 226.723 216.1 260.245H226.216ZM157.04 331.039C195.394 330.168 226.216 298.807 226.216 260.245H216.1C216.1 293.297 189.681 320.179 156.81 320.926L157.04 331.039ZM161.983 326V325.983H151.867V326H161.983ZM22.0782 331.058H156.925V320.942H22.0782V331.058ZM22.0782 320.942C22.0634 320.942 22.0489 320.942 22.0361 320.942C22.0229 320.942 22.0113 320.942 22 320.942V331.058C22.0148 331.058 22.0293 331.058 22.0421 331.058C22.0553 331.058 22.0669 331.058 22.0782 331.058V320.942ZM22 320.942C21.9887 320.942 21.9771 320.942 21.9639 320.942C21.9511 320.942 21.9366 320.942 21.9218 320.942V331.058C21.9331 331.058 21.9447 331.058 21.9579 331.058C21.9707 331.058 21.9852 331.058 22 331.058V320.942Z" fill="black" mask="url(#path-37-inside-2_571_2111)"/>
<mask id="path-39-inside-3_571_2111" fill="white">
<path fill-rule="evenodd" clip-rule="evenodd" d="M1586.88 671C1532.81 670.932 1489 627.082 1489 573C1489 518.876 1532.88 475 1587 475C1633.71 475 1672.79 507.68 1682.62 551.424C1693.31 543.905 1706.34 539.49 1720.4 539.49C1756.72 539.49 1786.16 568.93 1786.16 605.245C1786.16 641.052 1757.54 670.174 1721.93 670.983V671H1587.08C1587.05 671 1587.03 671 1587 671C1586.97 671 1586.95 671 1586.92 671"/>
</mask>
<path fill-rule="evenodd" clip-rule="evenodd" d="M1586.88 671C1532.81 670.932 1489 627.082 1489 573C1489 518.876 1532.88 475 1587 475C1633.71 475 1672.79 507.68 1682.62 551.424C1693.31 543.905 1706.34 539.49 1720.4 539.49C1756.72 539.49 1786.16 568.93 1786.16 605.245C1786.16 641.052 1757.54 670.174 1721.93 670.983V671H1587.08C1587.05 671 1587.03 671 1587 671C1586.97 671 1586.95 671 1586.92 671" fill="white"/>
<path d="M1586.92 668.471H1586.88V673.529H1586.92V668.471ZM1682.62 551.424L1677.68 552.533L1679.34 559.913L1685.53 555.562L1682.62 551.424ZM1721.93 670.983L1721.81 665.926L1716.87 666.038V670.983H1721.93ZM1721.93 671V676.058H1726.98V671H1721.93ZM1586.88 665.942C1535.61 665.878 1494.06 624.291 1494.06 573H1483.94C1483.94 629.873 1530.01 675.987 1586.87 676.058L1586.88 665.942ZM1494.06 573C1494.06 521.669 1535.67 480.058 1587 480.058V469.942C1530.08 469.942 1483.94 516.082 1483.94 573H1494.06ZM1587 480.058C1631.29 480.058 1668.36 511.048 1677.68 552.533L1687.55 550.316C1677.22 504.313 1636.13 469.942 1587 469.942V480.058ZM1720.4 534.432C1705.26 534.432 1691.22 539.188 1679.71 547.287L1685.53 555.562C1695.39 548.622 1707.42 544.548 1720.4 544.548V534.432ZM1791.22 605.245C1791.22 566.136 1759.51 534.432 1720.4 534.432V544.548C1753.93 544.548 1781.1 571.723 1781.1 605.245H1791.22ZM1722.04 676.039C1760.39 675.168 1791.22 643.807 1791.22 605.245H1781.1C1781.1 638.297 1754.68 665.179 1721.81 665.926L1722.04 676.039ZM1726.98 671V670.983H1716.87V671H1726.98ZM1587.08 676.058H1721.93V665.942H1587.08V676.058ZM1587.08 665.942C1587.06 665.942 1587.05 665.942 1587.04 665.942C1587.02 665.942 1587.01 665.942 1587 665.942V676.058C1587.01 676.058 1587.03 676.058 1587.04 676.058C1587.06 676.058 1587.07 676.058 1587.08 676.058V665.942ZM1587 665.942C1586.99 665.942 1586.98 665.942 1586.96 665.942C1586.95 665.942 1586.94 665.942 1586.92 665.942V676.058C1586.93 676.058 1586.94 676.058 1586.96 676.058C1586.97 676.058 1586.99 676.058 1587 676.058V665.942Z" fill="black" mask="url(#path-39-inside-3_571_2111)"/>
<mask id="path-41-inside-4_571_2111" fill="white">
<path fill-rule="evenodd" clip-rule="evenodd" d="M1595.88 3187C1541.81 3186.93 1498 3143.08 1498 3089C1498 3034.88 1541.88 2991 1596 2991C1642.71 2991 1681.79 3023.68 1691.62 3067.42C1702.31 3059.91 1715.34 3055.49 1729.4 3055.49C1765.72 3055.49 1795.16 3084.93 1795.16 3121.25C1795.16 3157.05 1766.54 3186.17 1730.93 3186.98V3187H1596.08C1596.05 3187 1596.03 3187 1596 3187C1595.97 3187 1595.95 3187 1595.92 3187"/>
</mask>
<path fill-rule="evenodd" clip-rule="evenodd" d="M1595.88 3187C1541.81 3186.93 1498 3143.08 1498 3089C1498 3034.88 1541.88 2991 1596 2991C1642.71 2991 1681.79 3023.68 1691.62 3067.42C1702.31 3059.91 1715.34 3055.49 1729.4 3055.49C1765.72 3055.49 1795.16 3084.93 1795.16 3121.25C1795.16 3157.05 1766.54 3186.17 1730.93 3186.98V3187H1596.08C1596.05 3187 1596.03 3187 1596 3187C1595.97 3187 1595.95 3187 1595.92 3187" fill="white"/>
<path d="M1595.92 3184.47H1595.88V3189.53H1595.92V3184.47ZM1691.62 3067.42L1686.68 3068.53L1688.34 3075.91L1694.53 3071.56L1691.62 3067.42ZM1730.93 3186.98L1730.81 3181.93L1725.87 3182.04V3186.98H1730.93ZM1730.93 3187V3192.06H1735.98V3187H1730.93ZM1595.88 3181.94C1544.61 3181.88 1503.06 3140.29 1503.06 3089H1492.94C1492.94 3145.87 1539.01 3191.99 1595.87 3192.06L1595.88 3181.94ZM1503.06 3089C1503.06 3037.67 1544.67 2996.06 1596 2996.06V2985.94C1539.08 2985.94 1492.94 3032.08 1492.94 3089H1503.06ZM1596 2996.06C1640.29 2996.06 1677.36 3027.05 1686.68 3068.53L1696.55 3066.32C1686.22 3020.31 1645.13 2985.94 1596 2985.94V2996.06ZM1729.4 3050.43C1714.26 3050.43 1700.22 3055.19 1688.71 3063.29L1694.53 3071.56C1704.39 3064.62 1716.42 3060.55 1729.4 3060.55V3050.43ZM1800.22 3121.25C1800.22 3082.14 1768.51 3050.43 1729.4 3050.43V3060.55C1762.93 3060.55 1790.1 3087.72 1790.1 3121.25H1800.22ZM1731.04 3192.04C1769.39 3191.17 1800.22 3159.81 1800.22 3121.25H1790.1C1790.1 3154.3 1763.68 3181.18 1730.81 3181.93L1731.04 3192.04ZM1735.98 3187V3186.98H1725.87V3187H1735.98ZM1596.08 3192.06H1730.93V3181.94H1596.08V3192.06ZM1596.08 3181.94C1596.06 3181.94 1596.05 3181.94 1596.04 3181.94C1596.02 3181.94 1596.01 3181.94 1596 3181.94V3192.06C1596.01 3192.06 1596.03 3192.06 1596.04 3192.06C1596.06 3192.06 1596.07 3192.06 1596.08 3192.06V3181.94ZM1596 3181.94C1595.99 3181.94 1595.98 3181.94 1595.96 3181.94C1595.95 3181.94 1595.94 3181.94 1595.92 3181.94V3192.06C1595.93 3192.06 1595.94 3192.06 1595.96 3192.06C1595.97 3192.06 1595.99 3192.06 1596 3192.06V3181.94Z" fill="black" mask="url(#path-41-inside-4_571_2111)"/>
<mask id="path-43-inside-5_571_2111" fill="white">
<path fill-rule="evenodd" clip-rule="evenodd" d="M-21.125 1344C-75.1914 1343.93 -119 1300.08 -119 1246C-119 1191.88 -75.1239 1148 -21 1148C25.7111 1148 64.7892 1180.68 74.6173 1224.42C85.3079 1216.91 98.34 1212.49 112.403 1212.49C148.719 1212.49 178.158 1241.93 178.158 1278.25C178.158 1314.05 149.538 1343.17 113.925 1343.98V1344H-20.9218C-20.9479 1344 -20.9739 1344 -21 1344C-21.0261 1344 -21.0521 1344 -21.0782 1344"/>
</mask>
<path fill-rule="evenodd" clip-rule="evenodd" d="M-21.125 1344C-75.1914 1343.93 -119 1300.08 -119 1246C-119 1191.88 -75.1239 1148 -21 1148C25.7111 1148 64.7892 1180.68 74.6173 1224.42C85.3079 1216.91 98.34 1212.49 112.403 1212.49C148.719 1212.49 178.158 1241.93 178.158 1278.25C178.158 1314.05 149.538 1343.17 113.925 1343.98V1344H-20.9218C-20.9479 1344 -20.9739 1344 -21 1344C-21.0261 1344 -21.0521 1344 -21.0782 1344" fill="white"/>
<path d="M-21.0782 1341.47H-21.125V1346.53H-21.0782V1341.47ZM74.6173 1224.42L69.6822 1225.53L71.3403 1232.91L77.5272 1228.56L74.6173 1224.42ZM113.925 1343.98L113.81 1338.93L108.867 1339.04V1343.98H113.925ZM113.925 1344V1349.06H118.983V1344H113.925ZM-21.1187 1338.94C-72.3945 1338.88 -113.942 1297.29 -113.942 1246H-124.058C-124.058 1302.87 -77.9884 1348.99 -21.1313 1349.06L-21.1187 1338.94ZM-113.942 1246C-113.942 1194.67 -72.3304 1153.06 -21 1153.06V1142.94C-77.9174 1142.94 -124.058 1189.08 -124.058 1246H-113.942ZM-21 1153.06C23.2938 1153.06 60.3616 1184.05 69.6822 1225.53L79.5523 1223.32C69.2168 1177.31 28.1283 1142.94 -21 1142.94V1153.06ZM112.403 1207.43C97.2648 1207.43 83.2221 1212.19 71.7073 1220.29L77.5272 1228.56C87.3936 1221.62 99.4152 1217.55 112.403 1217.55V1207.43ZM183.216 1278.25C183.216 1239.14 151.512 1207.43 112.403 1207.43V1217.55C145.925 1217.55 173.1 1244.72 173.1 1278.25H183.216ZM114.04 1349.04C152.394 1348.17 183.216 1316.81 183.216 1278.25H173.1C173.1 1311.3 146.681 1338.18 113.81 1338.93L114.04 1349.04ZM118.983 1344V1343.98H108.867V1344H118.983ZM-20.9218 1349.06H113.925V1338.94H-20.9218V1349.06ZM-20.9218 1338.94C-20.9366 1338.94 -20.9511 1338.94 -20.9639 1338.94C-20.9771 1338.94 -20.9887 1338.94 -21 1338.94V1349.06C-20.9852 1349.06 -20.9707 1349.06 -20.9579 1349.06C-20.9447 1349.06 -20.9331 1349.06 -20.9218 1349.06V1338.94ZM-21 1338.94C-21.0113 1338.94 -21.0229 1338.94 -21.0361 1338.94C-21.0489 1338.94 -21.0634 1338.94 -21.0782 1338.94V1349.06C-21.0669 1349.06 -21.0553 1349.06 -21.0421 1349.06C-21.0293 1349.06 -21.0148 1349.06 -21 1349.06V1338.94Z" fill="black" mask="url(#path-43-inside-5_571_2111)"/>
<path d="M1637.75 6296.6C1584.17 6572.21 1162.17 6722.05 695.176 6631.27C228.182 6540.5 -106.963 6243.49 -53.3902 5967.88C0.182772 5692.27 430.801 5634.19 897.796 5724.97C1364.79 5815.74 1691.32 6020.99 1637.75 6296.6Z" fill="#E0F5FF"/>
<path d="M1482.6 8008.76L1452.67 7954.56C1424.08 7902.77 1406.39 7845.66 1400.71 7786.77V7786.77C1398.39 7762.69 1398.09 7738.46 1399.81 7714.33L1403.02 7669.43C1404.46 7649.21 1407.38 7629.11 1411.74 7609.31L1420.16 7571.13C1424.6 7551.02 1432.36 7531.8 1443.12 7514.25L1446.13 7509.35C1452.28 7499.34 1459.66 7490.14 1468.1 7481.99L1473.93 7476.36C1495.58 7455.44 1524.36 7443.52 1554.46 7442.99L1556.85 7442.95C1579.26 7442.56 1601.26 7448.95 1619.97 7461.28V7461.28C1704.39 7516.9 1676.78 7647.21 1577.06 7663.79V7663.79C1571.67 7664.68 1566.23 7665.18 1560.77 7665.28L1551.87 7665.43C1480.84 7666.67 1413.16 7635.26 1368.25 7580.21L1357.33 7566.82C1349.12 7556.76 1341.71 7546.06 1335.18 7534.83V7534.83C1309.3 7489.57 1292.56 7450.25 1280.75 7412.28C1226.93 7239.29 1319.15 7051.52 1463.99 6942.69V6942.69L1594.03 6859.37C1683.33 6802.15 1751.16 6716.97 1786.95 6617.14V6617.14L1795.6 6576.58C1799.81 6556.82 1800.49 6536.47 1797.6 6516.47L1796.23 6507.04C1792.62 6482.04 1782.16 6458.52 1766.02 6439.09V6439.09C1755.3 6426.19 1742.3 6415.36 1727.68 6407.15L1706.24 6395.11C1663.89 6371.34 1614.84 6362.31 1566.8 6369.45L1551.54 6371.72C1526.86 6375.39 1503.43 6384.93 1483.21 6399.54L1480.85 6401.25C1441.02 6430.02 1417.8 6476.46 1418.65 6525.59V6525.59C1419.83 6593.07 1465.88 6651.47 1531.23 6668.36L1560.03 6675.8V6675.8C1600.85 6680.61 1642.17 6679.41 1682.65 6672.23L1689.27 6671.06C1744.58 6661.26 1797.63 6641.42 1845.81 6612.54L1857.17 6605.73C1871.36 6597.22 1884.83 6587.55 1897.44 6576.82L1909.35 6566.69C2021.73 6471.03 2042.03 6305.2 1956.03 6185.27V6185.27C1917.55 6131.61 1898.99 6066.2 1903.55 6000.32L1921.51 5741.06" stroke="black" stroke-width="7.92737"/>
<path d="M-5.45109 2966.48L62.2984 2952.2C127.044 2938.55 193.9 2938.3 258.743 2951.48V2951.48C285.255 2956.87 311.268 2964.47 336.511 2974.21L383.481 2992.32C404.641 3000.47 425.179 3010.17 444.93 3021.31L483.016 3042.8C503.068 3054.11 521.089 3068.7 536.334 3085.95L540.595 3090.78C549.292 3100.62 556.711 3111.52 562.676 3123.22L566.79 3131.29C582.081 3161.29 585.423 3195.97 576.143 3228.33L575.407 3230.9C568.499 3254.99 554.469 3276.43 535.164 3292.41V3292.41C448.071 3364.51 317.732 3292.38 332.61 3180.3V3180.3C333.413 3174.25 334.662 3168.26 336.345 3162.39L339.087 3152.83C360.988 3076.45 416.71 3014.34 490.27 2984.31L508.161 2977C521.613 2971.51 535.478 2967.09 549.626 2963.78V2963.78C606.487 2950.89 654.012 2945.85 698.488 2945.64C901.101 2944.65 1071.76 3104.67 1140.8 3295.16V3295.16L1187.39 3461.48C1219.39 3575.69 1288.3 3676.1 1383.38 3747.01V3747.01L1423.92 3769.53C1443.68 3780.5 1465.23 3787.87 1487.56 3791.32L1498.09 3792.94C1526.01 3797.25 1554.59 3793.76 1580.65 3782.85V3782.85C1597.95 3775.6 1613.78 3765.24 1627.34 3752.29L1647.22 3733.29C1686.5 3695.77 1712.19 3646.26 1720.26 3592.55L1722.83 3575.48C1726.97 3547.9 1724.43 3519.72 1715.42 3493.32L1714.36 3490.23C1696.61 3438.23 1654.54 3398.2 1601.72 3383.06V3383.06C1529.16 3362.25 1451.64 3392.41 1412.21 3456.77L1394.83 3485.14V3485.14C1376.34 3527.23 1364.12 3571.81 1358.56 3617.45L1357.65 3624.92C1350.05 3687.28 1353.91 3750.5 1369.05 3811.47L1372.62 3825.84C1377.08 3843.81 1383.02 3861.38 1390.37 3878.37L1397.31 3894.42C1462.87 4045.89 1633.59 4121.82 1789.98 4069.06V4069.06C1859.95 4045.45 1935.97 4046.99 2004.94 4073.41L2276.35 4177.38" stroke="black" stroke-width="8.86574"/>
<path d="M-15.4854 1050.19L36.2042 1060.16C85.5895 1069.68 136.402 1068.98 185.508 1058.11V1058.11C205.586 1053.66 225.256 1047.54 244.312 1039.8L279.766 1025.42C295.741 1018.94 311.222 1011.3 326.085 1002.56L354.739 985.726C369.831 976.857 383.334 965.53 394.692 952.21L397.861 948.494C404.342 940.894 409.836 932.506 414.215 923.528L417.229 917.347C428.452 894.335 430.531 867.923 423.045 843.439L422.446 841.478C416.878 823.267 405.937 807.161 391.06 795.273V795.273C323.91 741.616 225.795 798.178 238.596 883.173V883.173C239.287 887.761 240.315 892.292 241.671 896.729L243.884 903.967C261.55 961.748 304.736 1008.24 361.06 1030.11L374.733 1035.41C385.03 1039.41 395.626 1042.59 406.424 1044.92V1044.92C449.785 1053.96 485.955 1057.17 519.744 1056.75C673.776 1054.85 801.383 930.916 851.305 785.186V785.186L884.505 658.092C907.292 570.857 958.328 493.624 1029.64 438.455V438.455L1060.15 420.806C1075.02 412.204 1091.3 406.31 1108.23 403.396L1116.2 402.025C1137.37 398.381 1159.14 400.661 1179.1 408.613V408.613C1192.34 413.891 1204.51 421.555 1214.98 431.225L1230.35 445.405C1260.7 473.415 1280.89 510.714 1287.74 551.444L1289.92 564.402C1293.44 585.312 1291.88 606.761 1285.39 626.945L1284.62 629.327C1271.82 669.088 1240.38 700.072 1200.44 712.284V712.284C1145.57 729.057 1086.26 707.166 1055.45 658.773L1041.84 637.402V637.402C1027.23 605.643 1017.34 571.914 1012.51 537.289L1011.71 531.61C1005.1 484.307 1007.2 436.195 1017.89 389.644L1020.41 378.656C1023.56 364.945 1027.84 351.517 1033.2 338.509L1038.27 326.185C1086.06 210.183 1214.82 150.204 1334.37 188.252V188.252C1387.87 205.278 1445.63 203.105 1497.69 182.107L1702.58 99.4796" stroke="black" stroke-width="6.739"/>
</svg>
