<svg width="48" height="48" viewBox="0 0 48 48" fill="none" xmlns="http://www.w3.org/2000/svg">
<path d="M37 15.4857C36.043 15.9081 35.0151 16.1924 33.9361 16.3206C35.0381 15.6646 35.883 14.626 36.281 13.3876C35.2511 13.9949 34.1091 14.4362 32.8932 14.6747C31.9202 13.644 30.5342 13 29.0003 13C26.0544 13 23.6665 15.3744 23.6665 18.3014C23.6665 18.7169 23.7145 19.1224 23.8045 19.509C19.3717 19.2884 15.4418 17.1773 12.8099 13.969C12.3519 14.7522 12.089 15.6626 12.089 16.6357C12.089 18.4744 13.0299 20.0974 14.4609 21.0476C13.5869 21.0197 12.7639 20.7812 12.045 20.3846C12.045 20.4075 12.045 20.4284 12.045 20.4512C12.045 23.0204 13.8829 25.1633 16.3238 25.6493C15.8768 25.7706 15.4048 25.8352 14.9178 25.8352C14.5749 25.8352 14.2399 25.8014 13.9149 25.7407C14.5939 27.8468 16.5638 29.3804 18.8977 29.4231C17.0728 30.8454 14.7729 31.6932 12.273 31.6932C11.843 31.6932 11.418 31.6683 11 31.6186C13.3609 33.1224 16.1638 34 19.1767 34C28.9883 34 34.3521 25.9216 34.3521 18.9157C34.3521 18.6861 34.3471 18.4575 34.3371 18.2299C35.3801 17.4815 36.285 16.5482 37 15.4857Z" fill="white"/>
</svg>
