<svg width="26" height="26" viewBox="0 0 26 26" fill="none" xmlns="http://www.w3.org/2000/svg">
<path d="M24.4177 6.95516C24.289 6.44102 24.0269 5.96995 23.6579 5.58952C23.2888 5.20909 22.826 4.93278 22.316 4.7885C20.4527 4.3335 12.9993 4.3335 12.9993 4.3335C12.9993 4.3335 5.54598 4.3335 3.68265 4.83183C3.17267 4.97611 2.70979 5.25242 2.34078 5.63285C1.97176 6.01328 1.70967 6.48436 1.58098 6.9985C1.23997 8.88951 1.07316 10.8078 1.08265 12.7293C1.07049 14.6653 1.23732 16.5982 1.58098 18.5035C1.72286 19.0017 1.99082 19.4548 2.35897 19.8192C2.72713 20.1835 3.18304 20.4468 3.68265 20.5835C5.54598 21.0818 12.9993 21.0818 12.9993 21.0818C12.9993 21.0818 20.4527 21.0818 22.316 20.5835C22.826 20.4392 23.2888 20.1629 23.6579 19.7825C24.0269 19.402 24.289 18.931 24.4177 18.4168C24.756 16.5401 24.9228 14.6364 24.916 12.7293C24.9281 10.7934 24.7613 8.86042 24.4177 6.95516Z" fill="white" stroke="white" stroke-width="2" stroke-linecap="round" stroke-linejoin="round"/>
<path d="M10.5625 16.2715L16.7917 12.729L10.5625 9.18652V16.2715Z" fill="#0074AD"/>
</svg>
